<svg xmlns="http://www.w3.org/2000/svg" viewBox="0 0 380 72" role="img" aria-label="canonic">
  <defs>
    <linearGradient id="bg" x1="8" y1="8" x2="56" y2="64" gradientUnits="userSpaceOnUse">
      <stop stop-color="#2DD4BF"/>
      <stop offset="1" stop-color="#0D9488"/>
    </linearGradient>
    <linearGradient id="card" x1="14" y1="16" x2="42" y2="54" gradientUnits="userSpaceOnUse">
      <stop stop-color="#F0FDFA"/>
      <stop offset="1" stop-color="#CCFBF1"/>
    </linearGradient>
  </defs>
  <g transform="translate(4,4)">
    <rect width="64" height="64" rx="14" fill="url(#bg)"/>
    <path d="M14 8c8-4 28-4 36 0 2 1 3 3 2 5-4 8-32 8-40 0-1-2 0-4 2-5z" fill="#5EEAD4" opacity=".45"/>
    <rect x="20" y="10" width="28" height="36" rx="4" fill="#99F6E4" opacity=".55" transform="rotate(8 34 28)"/>
    <rect x="12" y="14" width="30" height="38" rx="4" fill="url(#card)"/>
    <path d="M18 24h18M18 30h14M18 36h16" stroke="#0F766E" stroke-width="2.2" stroke-linecap="round" opacity=".55"/>
    <circle cx="42" cy="44" r="13" fill="#0F766E"/>
    <circle cx="42" cy="44" r="10.5" fill="none" stroke="#5EEAD4" stroke-width="1.6" opacity=".9"/>
    <path d="M36.5 44.2l3.4 3.4 7.2-8" fill="none" stroke="#ECFDF5" stroke-width="2.8" stroke-linecap="round" stroke-linejoin="round"/>
  </g>
  <text x="84" y="48" font-family="ui-sans-serif, system-ui, -apple-system, 'Segoe UI', sans-serif"
        font-size="38" font-weight="700" letter-spacing="-0.03em" fill="#CCFBF1">canonic</text>
  <path d="M86 56h118" stroke="#5EEAD4" stroke-width="3" stroke-linecap="round" opacity=".9"/>
  <circle cx="212" cy="56" r="4.5" fill="#5EEAD4"/>
  <path d="M209.5 56.2l1.8 1.8 3.8-4.2" fill="none" stroke="#042F2E" stroke-width="1.5" stroke-linecap="round" stroke-linejoin="round"/>
</svg>
