<svg xmlns="http://www.w3.org/2000/svg" viewBox="0 0 720 220" role="img" aria-label="canonic library modules">
  <defs>
    <linearGradient id="g" x1="0" y1="0" x2="1" y2="1">
      <stop stop-color="#0D9488"/><stop offset="1" stop-color="#0F766E"/>
    </linearGradient>
  </defs>
  <rect width="720" height="220" rx="16" fill="#F0FDFA" stroke="#99F6E4"/>
  <text x="28" y="36" font-family="ui-sans-serif,system-ui,sans-serif" font-size="15" font-weight="750" fill="#115E59">crate canonic</text>
  <!-- center lib -->
  <rect x="280" y="70" width="160" height="56" rx="12" fill="url(#g)"/>
  <text x="360" y="104" text-anchor="middle" font-family="ui-sans-serif,system-ui,sans-serif" font-size="14" font-weight="700" fill="#ECFDF5">lib.rs</text>
  <!-- modules -->
  <g font-family="ui-monospace, SFMono-Regular, Menlo, monospace" font-size="11" fill="#134E4A">
    <rect x="24" y="150" width="90" height="36" rx="8" fill="#fff" stroke="#5EEAD4"/><text x="69" y="172" text-anchor="middle">corpus</text>
    <rect x="124" y="150" width="90" height="36" rx="8" fill="#fff" stroke="#5EEAD4"/><text x="169" y="172" text-anchor="middle">check</text>
    <rect x="224" y="150" width="90" height="36" rx="8" fill="#fff" stroke="#5EEAD4"/><text x="269" y="172" text-anchor="middle">convert</text>
    <rect x="324" y="150" width="90" height="36" rx="8" fill="#fff" stroke="#5EEAD4"/><text x="369" y="172" text-anchor="middle">index</text>
    <rect x="424" y="150" width="90" height="36" rx="8" fill="#fff" stroke="#5EEAD4"/><text x="469" y="172" text-anchor="middle">lint</text>
    <rect x="524" y="150" width="90" height="36" rx="8" fill="#fff" stroke="#5EEAD4"/><text x="569" y="172" text-anchor="middle">doctor</text>
    <rect x="624" y="150" width="80" height="36" rx="8" fill="#fff" stroke="#5EEAD4"/><text x="664" y="172" text-anchor="middle" font-size="10">jira_import</text>
  </g>
  <g stroke="#14B8A6" stroke-width="1.5" fill="none">
    <path d="M69 150 V140 H360 V126"/>
    <path d="M169 150 V140 H360 V126"/>
    <path d="M269 150 V140 H360 V126"/>
    <path d="M369 150 V126"/>
    <path d="M469 150 V140 H360 V126"/>
    <path d="M569 150 V140 H360 V126"/>
    <path d="M664 150 V140 H360 V126"/>
  </g>
</svg>
